HIERARCHY
ROOT hip
{
  OFFSET 5.51535 103.731 -2.80141
  CHANNELS 6 Xposition Yposition Zposition Zrotation Xrotation Yrotation
  JOINT abdomen
  {
    OFFSET 0 -1.186 -1.5018
    CHANNELS 6 Xposition Yposition Zposition Zrotation Xrotation Yrotation
    JOINT abdomen2
    {
      OFFSET 0 9.964 0.2134
      CHANNELS 6 Xposition Yposition Zposition Zrotation Xrotation Yrotation
      JOINT chest
      {
        OFFSET 0 13.134 -3.2573
        CHANNELS 6 Xposition Yposition Zposition Zrotation Xrotation Yrotation
        JOINT neck
        {
          OFFSET 0 20.686 -1.6905
          CHANNELS 6 Xposition Yposition Zposition Zrotation Xrotation Yrotation
          JOINT head
          {
            OFFSET 0 7.23801 -0.1237
            CHANNELS 6 Xposition Yposition Zposition Zrotation Xrotation Yrotation
            End Site
            {
              OFFSET 0 0 0
            }
          }
        }
        JOINT lCollar
        {
          OFFSET 1.7069 20.075 5.0056
          CHANNELS 6 Xposition Yposition Zposition Zrotation Xrotation Yrotation
          JOINT lShldr
          {
            OFFSET 13.6458 -0.0470195 -4.849
            CHANNELS 6 Xposition Yposition Zposition Zrotation Xrotation Yrotation
            JOINT lForeArm
            {
              OFFSET 28.3255 -0.97589 2.2888
              CHANNELS 6 Xposition Yposition Zposition Zrotation Xrotation Yrotation
              JOINT lHand
              {
                OFFSET 22.1583 -0.529998 10.8316
                CHANNELS 6 Xposition Yposition Zposition Zrotation Xrotation Yrotation
                JOINT lThumb1
                {
                  OFFSET 0.786 0.111997 2.5817
                  CHANNELS 6 Xposition Yposition Zposition Zrotation Xrotation Yrotation
                  JOINT lThumb2
                  {
                    OFFSET 0.360097 -0.877999 4.2331
                    CHANNELS 6 Xposition Yposition Zposition Zrotation Xrotation Yrotation
                    JOINT lThumb2_End
                    {
                      OFFSET 1.8127 -1.21601 2.2227
                      CHANNELS 6 Xposition Yposition Zposition Zrotation Xrotation Yrotation
                      End Site
                      {
                        OFFSET 0.0180981 -0.012195 0.0222007
                      }
                    }
                  }
                }
                JOINT lCarpal1
                {
                  OFFSET 0.9571 1.114 1.7695
                  CHANNELS 6 Xposition Yposition Zposition Zrotation Xrotation Yrotation
                  JOINT lIndex1
                  {
                    OFFSET 4.12461 0.486992 4.1451
                    CHANNELS 6 Xposition Yposition Zposition Zrotation Xrotation Yrotation
                    JOINT lIndex2
                    {
                      OFFSET 3.4052 -1.45401 2.7682
                      CHANNELS 6 Xposition Yposition Zposition Zrotation Xrotation Yrotation
                      JOINT lIndex2_End
                      {
                        OFFSET 1.45309 -1.79499 1.2713
                        CHANNELS 6 Xposition Yposition Zposition Zrotation Xrotation Yrotation
                        End Site
                        {
                          OFFSET 0.0144979 -0.0179083 0.0126995
                        }
                      }
                    }
                  }
                  JOINT lMid1
                  {
                    OFFSET 5.6954 0.209987 2.1184
                    CHANNELS 6 Xposition Yposition Zposition Zrotation Xrotation Yrotation
                    JOINT lMid2
                    {
                      OFFSET 3.9766 -1.53999 2.3863
                      CHANNELS 6 Xposition Yposition Zposition Zrotation Xrotation Yrotation
                      JOINT lMid2_End
                      {
                        OFFSET 1.4042 -1.926 1.125
                        CHANNELS 6 Xposition Yposition Zposition Zrotation Xrotation Yrotation
                        End Site
                        {
                          OFFSET 0.013999 -0.0193044 0.011301
                        }
                      }
                    }
                  }
                }
                JOINT lCarpal2
                {
                  OFFSET 2.0956 0.66 -0.3894
                  CHANNELS 6 Xposition Yposition Zposition Zrotation Xrotation Yrotation
                  JOINT lRing1
                  {
                    OFFSET 5.0395 -0.090013 2.4971
                    CHANNELS 6 Xposition Yposition Zposition Zrotation Xrotation Yrotation
                    JOINT lRing2
                    {
                      OFFSET 3.7921 -1.55199 1.4806
                      CHANNELS 6 Xposition Yposition Zposition Zrotation Xrotation Yrotation
                      JOINT lRing2_End
                      {
                        OFFSET 1.4655 -1.808 0.9609
                        CHANNELS 6 Xposition Yposition Zposition Zrotation Xrotation Yrotation
                        End Site
                        {
                          OFFSET 0.0147015 -0.0181014 0.00959957
                        }
                      }
                    }
                  }
                  JOINT lPinky1
                  {
                    OFFSET 4.9141 -1.269 0.3591
                    CHANNELS 6 Xposition Yposition Zposition Zrotation Xrotation Yrotation
                    JOINT lPinky2
                    {
                      OFFSET 3.1477 -1.685 0.8462
                      CHANNELS 6 Xposition Yposition Zposition Zrotation Xrotation Yrotation
                      JOINT lPinky2_End
                      {
                        OFFSET 0.805498 -1.58501 0.795499
                        CHANNELS 6 Xposition Yposition Zposition Zrotation Xrotation Yrotation
                        End Site
                        {
                          OFFSET 0.00809703 -0.0157944 0.00799848
                        }
                      }
                    }
                  }
                }
              }
            }
          }
        }
        JOINT rCollar
        {
          OFFSET -1.7069 20.075 5.0056
          CHANNELS 6 Xposition Yposition Zposition Zrotation Xrotation Yrotation
          JOINT rShldr
          {
            OFFSET -13.6458 -0.0470107 -4.849
            CHANNELS 6 Xposition Yposition Zposition Zrotation Xrotation Yrotation
            JOINT rForeArm
            {
              OFFSET -28.3255 -0.975895 2.2888
              CHANNELS 6 Xposition Yposition Zposition Zrotation Xrotation Yrotation
              JOINT rHand
              {
                OFFSET -22.1583 -0.530007 10.8316
                CHANNELS 6 Xposition Yposition Zposition Zrotation Xrotation Yrotation
                JOINT rThumb1
                {
                  OFFSET -0.785997 0.112005 2.5817
                  CHANNELS 6 Xposition Yposition Zposition Zrotation Xrotation Yrotation
                  JOINT rThumb2
                  {
                    OFFSET -0.360106 -0.877994 4.2331
                    CHANNELS 6 Xposition Yposition Zposition Zrotation Xrotation Yrotation
                    JOINT rThumb2_End
                    {
                      OFFSET -1.8127 -1.216 2.2227
                      CHANNELS 6 Xposition Yposition Zposition Zrotation Xrotation Yrotation
                      End Site
                      {
                        OFFSET -0.0180972 -0.0121973 0.0222005
                      }
                    }
                  }
                }
                JOINT rCarpal1
                {
                  OFFSET -0.9571 1.114 1.7695
                  CHANNELS 6 Xposition Yposition Zposition Zrotation Xrotation Yrotation
                  JOINT rIndex1
                  {
                    OFFSET -4.1246 0.487011 4.1451
                    CHANNELS 6 Xposition Yposition Zposition Zrotation Xrotation Yrotation
                    JOINT rIndex2
                    {
                      OFFSET -3.4052 -1.45401 2.7682
                      CHANNELS 6 Xposition Yposition Zposition Zrotation Xrotation Yrotation
                      JOINT rIndex2_End
                      {
                        OFFSET -1.4531 -1.795 1.2713
                        CHANNELS 6 Xposition Yposition Zposition Zrotation Xrotation Yrotation
                        End Site
                        {
                          OFFSET -0.0145077 -0.0180048 0.0127017
                        }
                      }
                    }
                  }
                  JOINT rMid1
                  {
                    OFFSET -5.6954 0.210002 2.1184
                    CHANNELS 6 Xposition Yposition Zposition Zrotation Xrotation Yrotation
                    JOINT rMid2
                    {
                      OFFSET -3.9766 -1.54 2.3863
                      CHANNELS 6 Xposition Yposition Zposition Zrotation Xrotation Yrotation
                      JOINT rMid2_End
                      {
                        OFFSET -1.4042 -1.926 1.125
                        CHANNELS 6 Xposition Yposition Zposition Zrotation Xrotation Yrotation
                        End Site
                        {
                          OFFSET -0.0139948 -0.0192916 0.0112994
                        }
                      }
                    }
                  }
                }
                JOINT rCarpal2
                {
                  OFFSET -2.0956 0.66 -0.3894
                  CHANNELS 6 Xposition Yposition Zposition Zrotation Xrotation Yrotation
                  JOINT rRing1
                  {
                    OFFSET -5.03951 -0.0899879 2.4971
                    CHANNELS 6 Xposition Yposition Zposition Zrotation Xrotation Yrotation
                    JOINT rRing2
                    {
                      OFFSET -3.7921 -1.55201 1.4806
                      CHANNELS 6 Xposition Yposition Zposition Zrotation Xrotation Yrotation
                      JOINT rRing2_End
                      {
                        OFFSET -1.4655 -1.808 0.960901
                        CHANNELS 6 Xposition Yposition Zposition Zrotation Xrotation Yrotation
                        End Site
                        {
                          OFFSET -0.0146934 -0.0180999 0.00959832
                        }
                      }
                    }
                  }
                  JOINT rPinky1
                  {
                    OFFSET -4.91411 -1.26899 0.359202
                    CHANNELS 6 Xposition Yposition Zposition Zrotation Xrotation Yrotation
                    JOINT rPinky2
                    {
                      OFFSET -3.14769 -1.68501 0.846199
                      CHANNELS 6 Xposition Yposition Zposition Zrotation Xrotation Yrotation
                      JOINT rPinky2_End
                      {
                        OFFSET -0.805498 -1.585 0.7955
                        CHANNELS 6 Xposition Yposition Zposition Zrotation Xrotation Yrotation
                        End Site
                        {
                          OFFSET -0.00810035 -0.0158035 0.00800029
                        }
                      }
                    }
                  }
                }
              }
            }
          }
        }
      }
    }
  }
  JOINT lThigh
  {
    OFFSET 8.367 -8.2066 0.5982
    CHANNELS 6 Xposition Yposition Zposition Zrotation Xrotation Yrotation
    JOINT lShin
    {
      OFFSET 2.1923 -43.463 -0.4932
      CHANNELS 6 Xposition Yposition Zposition Zrotation Xrotation Yrotation
      JOINT lFoot
      {
        OFFSET 0.733301 -45.8593 -2.6451
        CHANNELS 6 Xposition Yposition Zposition Zrotation Xrotation Yrotation
        End Site
        {
          OFFSET 2.6618 -4.2699 12.3931
        }
      }
    }
  }
  JOINT rThigh
  {
    OFFSET -8.367 -8.2066 0.5982
    CHANNELS 6 Xposition Yposition Zposition Zrotation Xrotation Yrotation
    JOINT rShin
    {
      OFFSET -2.1923 -43.463 -0.4931
      CHANNELS 6 Xposition Yposition Zposition Zrotation Xrotation Yrotation
      JOINT rFoot
      {
        OFFSET -0.733299 -45.8593 -2.6451
        CHANNELS 6 Xposition Yposition Zposition Zrotation Xrotation Yrotation
        End Site
        {
          OFFSET -2.6618 -4.2699 12.3931
        }
      }
    }
  }
}
MOTION
Frames:	4
Frame Time:	0.0333333
3.79201 93.5762 0.401879 4.84122 -4.77964 -4.14322 -1.19702e-007 -1.186 -1.5018 4.30548 2.49209 -4.71828 -2.27295e-007 9.964 0.2134 8.81242 4.61426 -9.62238 -1.31275e-006 13.134 -3.2573 8.81242 4.61426 -9.62239 -3.54797e-005 20.6862 -1.69052 -2.63935 -12.7934 -39.7939 -1.15788e-005 7.23798 -0.123693 -1.39919 -5.01399 -33.5234 1.7069 20.075 5.0056 11.7395 -1.76377 -2.01917 13.6458 -0.047019 -4.849 -86.8096 -17.1404 56.0049 28.3255 -0.975888 2.28881 -22.6431 -17.9705 -24.6402 22.1583 -0.529993 10.8316 4.23712 51.71 8.73962 0.786001 0.111998 2.5817 -5.78854 -0.15758 -10.5708 0.360096 -0.877998 4.2331 9.6399e-006 -2.67947e-005 1.15773e-005 1.8127 -1.21601 2.2227 -3.61913 -0.223942 -6.6131 0.9571 1.114 1.7695 1.76556e-031 -3.18055e-015 3.18055e-015 4.1246 0.486994 4.1451 6.13631 -3.42548 -9.7034 3.40521 -1.45401 2.7682 5.72319 -2.67396 -2.22968 1.4531 -1.79499 1.2713 7.10863 -3.36062 -2.7342 5.6954 0.20999 2.1184 11.2223 -6.03964 -4.02286 3.9766 -1.53999 2.3863 11.1834 -6.03686 -4.16141 1.4042 -1.926 1.125 11.1755 -6.03219 -4.159 2.0956 0.66 -0.3894 1.76556e-031 -3.18055e-015 3.18055e-015 5.0395 -0.0900116 2.4971 10.7955 -6.23735 -4.68509 3.7921 -1.55199 1.4806 10.78 -6.33269 -4.65725 1.4655 -1.808 0.9609 10.7756 -6.32977 -4.65582 4.9141 -1.269 0.359101 17.0893 -2.5687 4.84719 3.1477 -1.685 0.846201 10.6494 -6.65667 -4.49753 0.805499 -1.58501 0.795501 10.6559 -6.66123 -4.49987 -1.7069 20.075 5.0056 -9.13647 -1.729 -1.45011 -13.6458 -0.0470035 -4.84901 58.3789 -2.67749 -1.30764 -28.3255 -0.975884 2.2888 10.9024 23.8076 -5.82333 -22.1583 -0.53001 10.8316 -28.5122 59.0411 22.2477 -0.785999 0.112005 2.5817 2.88949 -2.15548 8.33919 -0.360107 -0.877993 4.2331 -0.888544 0.807542 -2.7502 -1.81269 -1.216 2.2227 1.4047 -1.13051 4.15558 -0.9571 1.114 1.7695 -4.41391e-032 -3.18055e-015 -7.95139e-016 -4.12461 0.487011 4.1451 -4.53896 -2.17277 7.52627 -3.4052 -1.45401 2.7682 -2.5535 -0.861351 0.339933 -1.4531 -1.795 1.2713 -4.08988 -1.38655 0.525686 -5.6954 0.210002 2.1184 -7.34184 -2.8112 0.691206 -3.9766 -1.54 2.3863 -7.32092 -2.82018 0.829612 -1.4042 -1.926 1.125 -7.31888 -2.81957 0.829325 -2.0956 0.66 -0.3894 -4.41391e-032 -3.18055e-015 -7.95139e-016 -5.03951 -0.0899884 2.4971 -11.8035 -5.02051 1.66406 -3.7921 -1.55201 1.4806 -11.7832 -5.10405 1.61859 -1.4655 -1.808 0.9609 -11.7791 -5.10212 1.61876 -4.91411 -1.26899 0.359203 -24.2365 -1.67904 -6.30625 -3.14769 -1.68501 0.846196 -11.6756 -5.39991 1.42453 -0.805497 -1.58499 0.795499 -11.677 -5.38063 1.41618 8.367 -8.2066 0.598201 -3.02783 -32.1817 -13.3155 2.1923 -43.463 -0.493198 -5.39123 39.5976 -7.79838 0.733303 -45.8593 -2.6451 -4.65142 -5.32502 -14.4621 -8.36701 -8.20659 0.598201 3.96343 -19.6563 19.9554 -2.20012 -43.4629 -0.47103 15.4128 52.5983 -18.1199 -0.733302 -45.8593 -2.6451 -4.54741 -31.9248 -17.4788 
3.81196 93.5772 0.43809 4.79605 -4.76006 -4.00058 3.89616e-008 -1.186 -1.5018 4.33848 2.48379 -4.72698 1.18295e-007 9.964 0.2134 8.87794 4.59425 -9.64024 6.29769e-007 13.134 -3.2573 8.87795 4.59426 -9.64024 1.88777e-005 20.686 -1.6905 -2.68341 -12.7385 -40.0037 -9.0512e-006 7.23801 -0.123692 -1.2991 -4.8 -33.5631 1.7069 20.075 5.0056 11.5156 -1.76545 -2.22203 13.6458 -0.0470147 -4.849 -86.7463 -17.2909 56.072 28.3255 -0.975896 2.2888 -22.7376 -18.0959 -24.7624 22.1583 -0.529987 10.8316 4.44357 52.062 8.52319 0.786004 0.111997 2.5817 -5.78859 -0.157603 -10.5708 0.360099 -0.877999 4.2331 -1.60203e-005 -2.41275e-005 1.17871e-005 1.81269 -1.21601 2.2227 -3.61914 -0.22394 -6.6131 0.9571 1.114 1.7695 -3.18055e-015 3.18055e-015 -3.18055e-015 4.12461 0.486992 4.1451 6.15457 -3.43234 -9.71221 3.4052 -1.45401 2.7682 5.74159 -2.68298 -2.23647 1.4531 -1.79499 1.2713 7.12714 -3.36989 -2.74084 5.6954 0.209989 2.1184 11.2618 -6.06298 -4.03861 3.9766 -1.53999 2.3863 11.2262 -6.06181 -4.17529 1.4042 -1.926 1.125 11.2193 -6.05774 -4.17323 2.0956 0.66 -0.3894 -3.18055e-015 3.18055e-015 -3.18055e-015 5.0395 -0.0900109 2.4971 10.8378 -6.26663 -4.70081 3.7921 -1.55199 1.4806 10.8223 -6.35966 -4.67348 1.4655 -1.808 0.960899 10.8171 -6.35633 -4.67181 4.9141 -1.269 0.3591 17.1287 -2.59748 4.83753 3.1477 -1.685 0.846201 10.6913 -6.68501 -4.51313 0.805498 -1.58501 0.7955 10.6961 -6.68838 -4.51483 -1.7069 20.075 5.0056 -9.29613 -1.73351 -1.53876 -13.6458 -0.0470047 -4.849 58.4544 -2.64427 -1.28109 -28.3255 -0.975903 2.2888 10.8036 23.8559 -5.9354 -22.1583 -0.530014 10.8316 -28.719 58.9877 22.4371 -0.785998 0.112006 2.5817 2.88949 -2.15554 8.33919 -0.360106 -0.877992 4.2331 -0.888558 0.807556 -2.75019 -1.81269 -1.216 2.2227 1.40469 -1.13049 4.15559 -0.9571 1.114 1.7695 1.59028e-015 -6.36111e-015 -1.59028e-015 -4.1246 0.487011 4.1451 -4.53899 -2.17274 7.52626 -3.4052 -1.45401 2.7682 -2.55349 -0.861355 0.339937 -1.4531 -1.795 1.2713 -4.08984 -1.38666 0.525631 -5.6954 0.210001 2.1184 -7.39036 -2.83056 0.698394 -3.9766 -1.54 2.3863 -7.37026 -2.83957 0.834002 -1.4042 -1.926 1.125 -7.36668 -2.83829 0.833549 -2.0956 0.66 -0.3894 1.59028e-015 -6.36111e-015 -1.59028e-015 -5.03951 -0.0899865 2.4971 -11.8488 -5.04267 1.66733 -3.7921 -1.55201 1.4806 -11.8312 -5.12553 1.62305 -1.4655 -1.808 0.9609 -11.8282 -5.12406 1.62332 -4.91411 -1.26899 0.359203 -24.2852 -1.70301 -6.30991 -3.14769 -1.68501 0.846198 -11.7234 -5.42253 1.42809 -0.805497 -1.585 0.795499 -11.7289 -5.40449 1.41972 8.36701 -8.20662 0.598199 -2.96449 -32.5307 -13.1565 2.1923 -43.463 -0.493201 -5.50304 39.9299 -7.70971 0.733299 -45.8593 -2.6451 -4.56941 -5.28268 -14.8004 -8.36702 -8.2066 0.598202 3.91887 -19.6619 19.7377 -2.19169 -43.463 -0.494851 15.403 52.6 -18.1206 -0.733303 -45.8593 -2.6451 -4.53196 -31.97 -17.3967 
3.84604 93.58 0.47481 4.78662 -4.74267 -3.99118 2.04733e-007 -1.18599 -1.5018 4.34711 2.4832 -4.7214 4.53893e-007 9.964 0.2134 8.89501 4.59282 -9.62937 5.47625e-007 13.134 -3.2573 8.89501 4.59282 -9.62936 2.98075e-006 20.686 -1.6905 -2.71178 -12.67 -40.165 -8.76666e-006 7.23801 -0.123698 -1.10855 -4.51998 -33.5402 1.7069 20.075 5.0056 11.4987 -1.76568 -2.24642 13.6458 -0.0470076 -4.84901 -86.7623 -17.3032 56.0522 28.3255 -0.975898 2.2888 -22.7923 -18.1608 -24.6685 22.1583 -0.53 10.8316 4.54454 52.3755 8.34545 0.786004 0.111997 2.5817 -5.78861 -0.15767 -10.5709 0.360096 -0.877998 4.2331 -5.26303e-006 -4.24075e-005 2.03644e-005 1.8127 -1.21601 2.2227 -3.61915 -0.223927 -6.6131 0.9571 1.114 1.7695 1.27222e-014 3.18055e-015 -0 4.1246 0.486993 4.1451 6.17285 -3.43926 -9.72097 3.4052 -1.45401 2.7682 5.75997 -2.69199 -2.24325 1.4531 -1.79499 1.2713 7.14569 -3.37918 -2.74748 5.6954 0.209986 2.1184 11.3065 -6.08949 -4.05643 3.9766 -1.53999 2.3863 11.2689 -6.08677 -4.18915 1.4042 -1.926 1.125 11.2631 -6.08331 -4.18743 2.0956 0.66 -0.3894 1.27222e-014 3.18055e-015 -0 5.0395 -0.0900125 2.4971 10.8801 -6.29596 -4.71651 3.7921 -1.55199 1.4806 10.8645 -6.38662 -4.68972 1.4655 -1.808 0.960898 10.8587 -6.38287 -4.68779 4.9141 -1.269 0.359103 17.1681 -2.62627 4.82788 3.1477 -1.685 0.846198 10.7333 -6.71335 -4.52871 0.8055 -1.585 0.795498 10.7393 -6.71755 -4.53086 -1.7069 20.075 5.0056 -9.33913 -1.73402 -1.54321 -13.6458 -0.047007 -4.849 58.464 -2.64488 -1.29743 -28.3255 -0.975893 2.2888 10.7423 23.8458 -6.00249 -22.1583 -0.530011 10.8316 -28.7431 58.8797 22.5541 -0.786 0.112005 2.5817 2.88953 -2.15565 8.3392 -0.360103 -0.877994 4.2331 -0.888529 0.807558 -2.75018 -1.8127 -1.216 2.2227 1.40467 -1.13047 4.15559 -0.9571 1.114 1.7695 -1.59028e-015 6.36111e-015 -7.95139e-016 -4.1246 0.487012 4.1451 -4.53902 -2.17265 7.52626 -3.40519 -1.45401 2.7682 -2.5535 -0.861344 0.339929 -1.4531 -1.795 1.2713 -4.08984 -1.38664 0.525657 -5.6954 0.210002 2.1184 -7.43886 -2.8499 0.705577 -3.9766 -1.54 2.3863 -7.41958 -2.85893 0.838373 -1.4042 -1.926 1.125 -7.41801 -2.85848 0.838068 -2.0956 0.66 -0.3894 -1.59028e-015 6.36111e-015 -7.95139e-016 -5.03951 -0.0899881 2.4971 -11.8942 -5.06481 1.67058 -3.7921 -1.55201 1.4806 -11.8793 -5.14703 1.62751 -1.4655 -1.808 0.960901 -11.8772 -5.14598 1.62785 -4.91411 -1.26899 0.359203 -24.3339 -1.72694 -6.31358 -3.1477 -1.68501 0.846199 -11.7711 -5.44517 1.43164 -0.805501 -1.585 0.7955 -11.7808 -5.42835 1.42327 8.36701 -8.2066 0.598202 -3.03622 -32.21 -13.2931 2.1923 -43.463 -0.493187 -5.38457 39.6488 -7.77332 0.733298 -45.8593 -2.6451 -4.57177 -5.33266 -14.6929 -8.36701 -8.2066 0.598201 3.89714 -19.5707 19.7067 -2.21226 -43.4626 -0.435876 15.3312 52.5148 -18.0682 -0.7333 -45.8593 -2.64511 -4.51224 -31.9916 -17.3959 
3.8824 93.5841 0.524565 4.77955 -4.72954 -3.99296 -7.14639e-008 -1.18599 -1.5018 4.35878 2.48982 -4.71586 2.71994e-007 9.964 0.2134 8.91867 4.60542 -9.6193 1.53411e-006 13.134 -3.2573 8.91867 4.60542 -9.6193 -1.38213e-005 20.686 -1.6905 -2.70733 -12.6885 -40.2516 -1.19191e-005 7.238 -0.12369 -0.928854 -4.36259 -33.5037 1.7069 20.075 5.0056 11.4701 -1.76583 -2.26635 13.6458 -0.0470226 -4.849 -86.8423 -17.3055 55.9825 28.3255 -0.975894 2.2888 -22.7586 -18.2547 -24.5703 22.1583 -0.529996 10.8316 4.46878 52.3357 8.3579 0.786003 0.111997 2.5817 -5.78851 -0.157558 -10.5708 0.360098 -0.878 4.2331 -1.63605e-005 -4.98505e-005 3.18555e-005 1.8127 -1.21601 2.2227 -3.61914 -0.223938 -6.61309 0.9571 1.114 1.7695 3.18055e-015 -3.18055e-015 -9.54166e-015 4.1246 0.486993 4.1451 6.1911 -3.44612 -9.72976 3.4052 -1.45401 2.7682 5.77837 -2.70102 -2.25003 1.4531 -1.79499 1.2713 7.16418 -3.38846 -2.75411 5.69541 0.209987 2.1184 11.3513 -6.11603 -4.07424 3.9766 -1.53999 2.3863 11.3141 -6.11314 -4.20377 1.4042 -1.926 1.125 11.3069 -6.10888 -4.20161 2.0956 0.66 -0.3894 3.18055e-015 -3.18055e-015 -9.54166e-015 5.03951 -0.0900132 2.4971 10.9223 -6.32527 -4.73217 3.7921 -1.55199 1.4806 10.9067 -6.4136 -4.70593 1.4655 -1.808 0.960899 10.9003 -6.40944 -4.70375 4.9141 -1.269 0.359098 17.2133 -2.65927 4.81688 3.1477 -1.685 0.846201 10.7752 -6.74169 -4.54428 0.805498 -1.58501 0.795502 10.7825 -6.74675 -4.54687 -1.7069 20.075 5.0056 -9.39541 -1.73471 -1.55062 -13.6458 -0.0470011 -4.849 58.4759 -2.64655 -1.29794 -28.3255 -0.975904 2.2888 10.6834 23.8217 -6.04448 -22.1583 -0.529999 10.8316 -28.9857 58.8934 22.7909 -0.786004 0.112005 2.5817 2.88946 -2.15544 8.3392 -0.360108 -0.877993 4.2331 -0.888555 0.807581 -2.75016 -1.8127 -1.216 2.2227 1.40467 -1.13045 4.15561 -0.9571 1.114 1.7695 -1.59028e-015 0 -7.95139e-016 -4.12461 0.48701 4.1451 -4.53896 -2.17282 7.52626 -3.40519 -1.45401 2.7682 -2.5535 -0.861343 0.339946 -1.4531 -1.795 1.2713 -4.08986 -1.38666 0.525631 -5.6954 0.210001 2.1184 -7.48737 -2.86927 0.712754 -3.9766 -1.54 2.3863 -7.47174 -2.87942 0.842931 -1.4042 -1.926 1.125 -7.46932 -2.87865 0.842603 -2.0956 0.66 -0.3894 -1.59028e-015 0 -7.95139e-016 -5.03951 -0.0899877 2.4971 -11.945 -5.08964 1.67422 -3.7921 -1.55201 1.4806 -11.9299 -5.16964 1.63215 -1.4655 -1.808 0.960901 -11.9263 -5.16792 1.63237 -4.9141 -1.26899 0.359202 -24.3826 -1.75088 -6.31725 -3.1477 -1.68501 0.846198 -11.8188 -5.46783 1.43515 -0.805502 -1.585 0.7955 -11.8327 -5.45221 1.42677 8.36701 -8.20661 0.5982 -3.0765 -32.4754 -13.3407 2.1923 -43.463 -0.493201 -5.49288 39.9613 -7.71409 0.733296 -45.8593 -2.6451 -4.52171 -5.38971 -14.647 -8.36701 -8.20661 0.5982 3.86597 -19.6536 19.6835 -2.18599 -43.4632 -0.511224 15.3967 52.5951 -18.1045 -0.733301 -45.8593 -2.64511 -4.48704 -32.0171 -17.3698 
